/* XPM */
static char * wall_xpm[] = {
"64 64 294 2",
"  	c #998F86",
". 	c #B3A69D",
"+ 	c #383836",
"@ 	c #BFB1A6",z
"# 	c #BEB0A5",
"$ 	c #D9C7BD",
"% 	c #B7AA9F",
"& 	c #CABBB0",
"* 	c #847B73",
"= 	c #7E756E",
"- 	c #CFBFB5",
"; 	c #A99C93",
"> 	c #BDAFA4",
", 	c #B6A99F",
"' 	c #9C9289",
") 	c #D8C7BD",
"! 	c #BEB0A6",
"~ 	c #867C75",
"{ 	c #D5C4BA",
"] 	c #A99D94",
"^ 	c #AFA399",
"/ 	c #D0BFB5",
"( 	c #9A9087",
"_ 	c #BCAFA4",
": 	c #7D756E",
"< 	c #AA9D94",
"[ 	c #BDAFA5",
"} 	c #57534E",
"| 	c #A3988F",
"1 	c #7F756E",
"2 	c #605A55",
"3 	c #5E5A55",
"4 	c #625D57",
"5 	c #C9BAAF",
"6 	c #BCAEA3",
"7 	c #A99E94",
"8 	c #7E756D",
"9 	c #3B3A38",
"0 	c #B0A39A",
"a 	c #7C746D",
"b 	c #44423F",
"c 	c #5B5753",
"d 	c #5F5B56",
"e 	c #55524D",
"f 	c #4A4844",
"g 	c #383735",
"h 	c #827971",
"i 	c #8C837B",
"j 	c #877E76",
"k 	c #3F3E3B",
"l 	c #BDB0A5",
"m 	c #9E948A",
"n 	c #BAACA2",
"o 	c #B7AAA0",
"p 	c #756E67",
"q 	c #454340",
"r 	c #D6C4BA",
"s 	c #D3C2B8",
"t 	c #B1A49A",
"u 	c #B9ACA1",
"v 	c #AEA298",
"w 	c #9B9187",
"x 	c #A1978D",
"y 	c #817870",
"z 	c #D3C3B9",
"A 	c #C4B5AB",
"B 	c #A2978E",
"C 	c #7D746D",
"D 	c #B2A59C",
"E 	c #978D84",
"F 	c #B3A69C",
"G 	c #948A82",
"H 	c #D2C1B7",
"I 	c #9D938A",
"J 	c #A3988E",
"K 	c #D0C0B6",
"L 	c #A0958C",
"M 	c #A89C93",
"N 	c #9A9086",
"O 	c #938980",
"P 	c #B4A79D",
"Q 	c #837A72",
"R 	c #B5A89E",
"S 	c #6F6962",
"T 	c #8F857D",
"U 	c #A1968D",
"V 	c #5F5A55",
"W 	c #8F867D",
"X 	c #887F77",
"Y 	c #C2B4A9",
"Z 	c #B4A79E",
"` 	c #A59990",
" .	c #C2B3A9",
"..	c #7B736C",
"+.	c #66605B",
"@.	c #A49990",
"#.	c #ADA097",
"$.	c #7F766F",
"%.	c #857C74",
"&.	c #938A81",
"*.	c #B1A49B",
"=.	c #524F4A",
"-.	c #ACA097",
";.	c #817871",
">.	c #948B82",
",.	c #54514D",
"'.	c #42413E",
").	c #766E68",
"!.	c #A69A91",
"~.	c #9D928A",
"{.	c #91887F",
"].	c #6C6660",
"^.	c #393937",
"/.	c #90867E",
"(.	c #A0968C",
"_.	c #B0A49A",
":.	c #D2C2B8",
"<.	c #CBBBB1",
"[.	c #B8ABA1",
"}.	c #736B64",
"|.	c #B4A79C",
"1.	c #69635E",
"2.	c #D1C0B6",
"3.	c #8B8179",
"4.	c #D8C6BC",
"5.	c #AC9F96",
"6.	c #A69A92",
"7.	c #8B8279",
"8.	c #43423E",
"9.	c #C7B8AE",
"0.	c #9B9188",
"a.	c #D7C6BC",
"b.	c #8E857C",
"c.	c #91877E",
"d.	c #AB9F96",
"e.	c #41403D",
"f.	c #ACA096",
"g.	c #706963",
"h.	c #9E948B",
"i.	c #C8B9AF",
"j.	c #AC9F95",
"k.	c #C3B4AA",
"l.	c #C5B6AC",
"m.	c #494744",
"n.	c #8B837B",
"o.	c #504D49",
"p.	c #383835",
"q.	c #56524E",
"r.	c #AA9E95",
"s.	c #B1A59B",
"t.	c #BBAEA3",
"u.	c #A2968D",
"v.	c #CCBCB2",
"w.	c #403F3C",
"x.	c #C0B2A7",
"y.	c #968D84",
"z.	c #43413E",
"A.	c #837B73",
"B.	c #CDBDB3",
"C.	c #CEBEB4",
"D.	c #A89B92",
"E.	c #ADA197",
"F.	c #80766F",
"G.	c #585550",
"H.	c #C4B5AC",
"I.	c #877D76",
"J.	c #A69B92",
"K.	c #847B74",
"L.	c #8B827A",
"M.	c #837A73",
"N.	c #615C56",
"O.	c #9C9188",
"P.	c #CCBCB1",
"Q.	c #3C3C39",
"R.	c #797069",
"S.	c #787069",
"T.	c #55514C",
"U.	c #3C3B39",
"V.	c #615C57",
"W.	c #393936",
"X.	c #867D75",
"Y.	c #A4988F",
"Z.	c #C4B6AB",
"`.	c #A1968C",
" +	c #857D75",
".+	c #5F5B55",
"++	c #998E86",
"@+	c #B8AAA1",
"#+	c #AA9F95",
"$+	c #988E85",
"%+	c #B6A89F",
"&+	c #645F5A",
"*+	c #A0958B",
"=+	c #7D746E",
"-+	c #474541",
";+	c #9C9288",
">+	c #CCBDB3",
",+	c #968D83",
"'+	c #8A8179",
")+	c #AEA198",
"!+	c #B6A99E",
"~+	c #595551",
"{+	c #595550",
"]+	c #BBADA3",
"^+	c #A4998F",
"/+	c #9A8F86",
"(+	c #B5A89F",
"_+	c #A59A91",
":+	c #B2A69B",
"<+	c #3F3F3C",
"[+	c #66615C",
"}+	c #B6A9A0",
"|+	c #BAADA3",
"1+	c #5C5853",
"2+	c #CFBFB4",
"3+	c #A79B92",
"4+	c #3E3D3A",
"5+	c #D2C1B8",
"6+	c #BFB0A5",
"7+	c #C6B7AD",
"8+	c #968C83",
"9+	c #AFA39A",
"0+	c #8C827A",
"a+	c #464440",
"b+	c #4F4C48",
"c+	c #4A4845",
"d+	c #897F77",
"e+	c #7B726B",
"f+	c #807770",
"g+	c #8D847B",
"h+	c #68625C",
"i+	c #7C736C",
"j+	c #635E58",
"k+	c #B9ABA1",
"l+	c #A2988E",
"m+	c #C4B5AA",
"n+	c #A89D93",
"o+	c #B3A79C",
"p+	c #AA9E94",
"q+	c #948A81",
"r+	c #A79B93",
"s+	c #C1B3A8",
"t+	c #B8AAA0",
"u+	c #AB9E95",
"v+	c #524E4A",
"w+	c #9F948B",
"x+	c #CBBBB0",
"y+	c #BBADA2",
"z+	c #6F6862",
"A+	c #C6B7AE",
"B+	c #988F85",
"C+	c #898078",
"D+	c #C2B3AA",
"E+	c #B9ACA2",
"F+	c #80776F",
"G+	c #5D5854",
"H+	c #3D3C3A",
"I+	c #958B83",
"J+	c #928880",
"K+	c #716A64",
"L+	c #79716A",
"M+	c #494743",
"N+	c #968C84",
"O+	c #9D9389",
"P+	c #C7B8AD",
"Q+	c #B1A59A",
"R+	c #5A5651",
"S+	c #867C74",
"T+	c #D6C5BB",
"U+	c #5E5954",
"V+	c #AB9F95",
"W+	c #C0B1A6",
"X+	c #B7A9A0",
"Y+	c #67615B",
"Z+	c #BAADA2",
"`+	c #474542",
" @	c #B2A69D",
".@	c #756E68",
"+@	c #ABA096",
"@@	c #837C74",
"#@	c #B2A69C",
"$@	c #B0A49B",
"%@	c #8A8178",
"&@	c #57534F",
"*@	c #79706A",
"=@	c #9E938A",
"-@	c #776F68",
";@	c #54504C",
">@	c #C1B2A8",
",@	c #5B5752",
"'@	c #ACA197",
")@	c #C0B1A7",
"!@	c #A99D93",
"~@	c #7F766E",
"  . . . . . . . . . . . . . . . .   + @ # # # # $ # $ $ # # # # # # # % # & * + = - . . . . . . . ; . . . # # # > , . ' . . . + ",
"  . . . . . . . . . ; ; . . . . .   + ) # # # ! $ # # # $ # # # # # # ; # # ~ + = $ . . . . . . . . . . . . . . . . . . . . . + ",
"= . { . . . . . . . ] . . . . . ^ = + / # # # # # ( ( # # # # # # # # _ # #   + : . . . < . . . . . . . . . . . . . . . [ . . + ",
"}   . . . .   |     1 = = 2 3 = 4 + + 5 # # # #   ; ; ; # $ # # # # # # # 6   + +   . . . . . . . . . . . . . . . . . . . 7 8 + ",
"+ + + + + + + + + + + + = = = 9 + + + . . . . . 0 ; ; ; # # # # # # # # # #   + + a       b + + c d e f + g + + + + + + + + + + ",
"h i j k + + + + +     l # # # #   = + m . . . . . . . . . . . . . n # # o .   + + + =   = ( i = p + + + + + + + q = = = = = = = ",
"# # # # # = + + *   # # # # # # # > + = . . . . . . . . . . . . . . . . . .   + +   # # # # # # #   = + = $ > # $ $ r s # # # # ",
"# # # # # t = + = # # # # # $ u # # + = . . . . . . . . . v   . . . . . . .   + = w # # # # # # # x y +   # # # # # # # # # # # ",
"# # # # z # = + = # ; ; # # A _ # B + C . . . . . . . .   ; D . . . . . . .   + E # # > # # # # F # y + > # # # # # # # # # # # ",
"# # # # # # G + = # # # # # # H #   + = I . . . . . . . . J . . K . L M . .   +   # # # $ # # # # # = + # # # # N # # # # # # # ",
"  # # # # # O +   . . . P # # # #   + Q . . M ; ; . . . . . - . . . . . . .   + = . R # # # ; # # . = S # # # # I # # # # # $ # ",
"# # # # # # T +   . . U . . . . .   +   . .   ; . $ . . . . . . . . . . . = = V W . . . . . . . . . X = # # # # # # Y r # # # # ",
"# # o Z o _ X +   . ` ; . . $ . .   + = . . . .  .. . . . . . . . . . . . .   ..+.. @.. . . . . #.. $.%.# . . . . R # # # # # # ",
". . . . . . &.+   . . $ . . *.. .   + + X . . . . . . . . . . . . . . . .   = + = . . . . . . . . . =.  . . . . . . . . . . . . ",
". . . . . . G + = . . . . . . . . = + + + = =                           = + + + + . . . . -.    ;.+ +   . . M . . . . . . . . . ",
". . . . . . >.+ + = = = = ,.'.).= + + + + + + + + + + + + + + + + + + + + + + + + + + + + + + + + + +   . . . . . . . . . . . . ",
". !.0 . . ~.{.+           = = = ].^.= /.(.o # # M   = + + + _.:.# <.> [.# @   }.+ +   |.    O     = + 1.. . R . . . . . . . . . ",
".   . . . . j +   # # # # # # # > # # [ # # # # # # # = +   # # # # # # # # # = +   # # # # # # #   + + . . . . .   ; F . . > . ",
". . . . . . = C # #   # 2.# # # # # # @.# # # # # # # 3.+   # # { $ 4.# # ; # # + = # # # # # ; #.# + +   . 5.. . . . . . . . . ",
". . . . .   +   . . ; . . - # # # # # # # Y R . Z [.#   +   # 6.; # # $ # # # # + {.# # # # # # # # = + + 7.*.. . . . . . . . . ",
"= = =     8.+   . . . . . . . . 9.0.. [.. . . . . . .   + = # # # # # # # # l # +   #   ; # # # a.# b.+ + + + =           c.= = ",
"+ + + + + + + =         d.  . . . . .   =       -.. D   + = # # # # :.# # # # # +   # ' # # # # # #   + + = + + + + + + + + + + ",
"+ e.  f.    b.+ + + + + + + b = = g.+ + + + + + + + ^.+ + = . . - . . . > h.# . +   # # # $ # # # $   +   # # i.      U j.  = + ",
"+ M # # # # # # # k.l.# # # # v h.  m.+ +   n.o.p.q.= C +   . . . . . . r.d.. . +   # # ) # # # M $   + s.# # # # # h.[.# # t.= ",
"+ u.# # # # # Y v.$ # # # # # # # < = +   # # # >   > [ +   . . . . . . . . . . w.  # # l.# # # # # # + # # # # # # # # # # # b.",
"+ # #   ; # # # > # # x.# # # > # # = y.# # # # # > # # z.  . . ` . . . . u ; . A.  # # # # # # # B.# + . C.{ . D.. . . . E.. O ",
"+ . . . . . .   ; . . . . . . . . . p.F.# # # C.; # # # w.+ . . . . . . . . . M + G.# # . P # # # #   + .   . . . . , H.. . .   ",
"+ . . . Z . . . . . . . . . ; ^ . . + $.# # ; > # # # $ + + + o.I.        . = + + + . . . . . J.. .   + j .   = = K.L.M.= =   N.",
"+   . . . . . . . . 0 r.B L O.    g +   # # # $ # # # P.+ + + + + + + + + + + + + a . . . . . ; . .   + + + + + Q.4 R.S.T.+ + + ",
"U.+ + + + + + + + + + + V.a W.+ + + + X.#  .# # # Y.# # + g.# # # # # Z.# # # `.+  +. . . . . . . .   + + y A # # t.# # # # a.= ",
"# B.{ #   + + + .+              = + + = K # # # # # # # + = # # # # # # # # t.++a V.. . . @+. . . . #++ +   # # r # # #   #.# # ",
"# # # # # $++   #   # # # # # 3.# = + + ] . . # > %+. . + &+# # *+# # # # # ; # =+-+. ;+. >+. . . . . ,++ ) # # f.# x.# # # # # ",
"# # # # # '++   # # # # # # # # # = + + B . )+. . . . . + + # # # # # # # 4.# # = + . . . . . . . . .   + !+#   ; # # [ # # # # ",
"; ; # # #   +   # # # # ! # #   # ~++ + . . ; . . . ; . {++ # # # # # # # # # ]+  + . . . . . . . . .   + . R u # # # # # # # # ",
". . . . . = + ^+# # ; # A #   ; # + + + /+. . . . (+  . = + . . . . i.. _+; . .   + . . .   . . . . .   + . . . . . . . . . . . ",
". . . . . = + :+# #   # :.# # # # <++ [+. . }+. . . C.r.= + . . . . . . . . . . i + . . . u.. . . . . = + J . |+. . . . . . . . ",
". . I . . 1++ 2+# # # # # # # # # = + = . . . . 3+. . . 4++ . . .   . $ 5+. ; . = + . . . . . . . . . + +   . . . . M . . . . . ",
". . . . . + + 6+# 7+# # # # # # # 8++ + . .   . . . .   + + 9+.   . $ . . $ . . + + >.. . . L . . . . + + = . . . . . . . . . . ",
"= = = = + + +   # # > #   ; # # #   + + + + + + + + + + + + + 0+  (     (     a++ + + + + + + + + + + + + +           b+c+..= = ",
"d+$+  %.e++ + * . . . . ; ; . . .   + + f+3+  g+= W.= = = = + + + + + + + + + + + + + + h+= = %.$+= i++ + + + + + + + + j+= = = ",
"> [ # k+#   =.= . . . . . . . . .   + l+# # # # # # # # # # # # 2.m+n+  o+#   = + + =   # > # # # # l         p+q+# # # # # # # ",
"; # # # $ # = = . . . . . . . . .   + 2.# # # # # # # # # # # # # # # # # # #   + +   # # # # B # # # a.# # # # # m r+# s+# #   ",
"# # # # # # {+= . . [ # # t+. . . B + # # # M # # # # # # # # # # # # # # [ # # = +   # # # ; u+# # $ # # # a.# # # # # # # # # ",
"# # # # # v v+= . . . . . . . > . w++ i.k+. # # # # <.x+) # y+k+  ; ; # # o . . E +   # # # # # ) # # # # # # # # # # # # # > v.",
". . . . . . ^.z+. . . .   ; . . .   +   . . . . . . . . . . . . . . . A+. . . . B++   . . . . . . . . . . I   . . . . . . . . . ",
". . . . . w + = . . . . . ; . . . C++ = . . . a.. ; . . . . . . D+. . . . . . . = +     . . . . . . . . ] -.. . . . . . . E+. $ ",
"; . . . .   + = . . . . . . . .   = + +   . . $ . v.. . . . . . . . . *.. . . D = + = . . . . . . . . . . . . . . . . . . . . . ",
". . = x   q + + f+d..       F+G+^.+ + + +                 = f + + H+= = ;.I+  J++ + = = =           =       !.. . . . .   . . . ",
"+ + + + + + + + + + + + + + + + + + + + + + + + + + + + + + + + + + + + + + + + + + + + + + + + + + + + + + + + + K+= = L+j+M++ ",
"= M.N+  = + + = # B.                      3+% !+O+  = + + ]+# E.P+<.[ U         0.$ > # # _ Q+B     = = + + + V.= = = = = = = = ",
"# # # # = = + T # # # # [ # # # # # # > ; # # # # # d.+ = # # # # # # # l # # # # # # # # # # ; # # = $+R++ ) # # # # # # # | # ",
"# # # # #   + ;.# # # # # # # # # # > # # # # # # $ # + S+# # # # # # # #   ; # # # # T+# # # # # # #   + U+# # # # # # # # # # ",
"#   ; # # # S.U+# (+> # # # # # # # # # # # V+# # # # +   ]+3+; . . . Z 6 # W+# # # # # { # # # # # X+  +   # [.; ; # # # # # # ",
". . . $ F . '+Y+. . . . . . . 3+. . Z+# . . ; . . $ . `+  . . ; { . . . . . . . . . . M . . . . . .  @9++ )+. . . . . . . . . . ",
". . . . . .   .@. . . . . . . . . . . . . . . . . . . + +   . . . . . . . . . . . . ; ; . . . . . . . +@+ . . . . . . . *.. . . ",
".   ; 0 D = + + @@      = X             O.. . . U     + + 8 #@. . . . . . . . . . . . . . . . . . . $@%@+ U . . . a.. . . . . . ",
"= &@+ + + + + + + + + + + + + + + + + + + + + + + + + + + + + + + h+= S.].*@= =     =@            0+-@+ + + + = = X i O = J+J+T ",
"+ + + + + +       =           = + + + +                   = = ;@+ + + + i++ + + + + + + + + + + + + + + + + + + + + + + + + + + ",
"+   5 <.- # # # # # # # # # # o $++ +   # # # # # # # >@$ $ # >       # #   + + + + = = ^+@ [ # # w+          O.    = = + + + + ",
"  # # t # # # # #   ; # # # # # l ,@+ ( # # # # # # # $ # # # # # # # # # # = + +   > # # # # # # # # # s.# # # # # # $ ;+= + + ",
"  # # # # # # # # M # # # # # # # ;.+ # # # # # # # # # # # # # # # [ # # #   + + - # # # # # # # # # # # # # # # # # # # # = + ",
"x # #   # # # # # $ # # # # # ; #   + $ # # # # # # # # # # # # # # # # # #   + + # # # # # # '@# )@# # # # # Q+; # # $ # # f.+ ",
"I # # ; # # # # # # # # _ . M ; .   + # # #   ; # # > # # # ' ; ; # # # # #   + = > # # # # ; !@# # # # # # # # # # # # # # # + ",
"  . . . . . A+. . . . . . $ . . .   + # #   # # # $ # # # # # # # # # # # #   + ~@! > # # # # $ # # # # # # # # # # # # # # . + "};
