/* XPM */
static char *_537364ecbbd4388c3b9db10ca20f4cfZmDyqHcCcyFs8zr8[] = {
/* columns rows colors chars-per-pixel */
"64 64 256 2 ",
"   c #FF4F59",
".  c #FE1E26",
"X  c #FE8B94",
"o  c #FD7179",
"O  c #FC242D",
"+  c #FD717A",
"@  c #FE5059",
"#  c #FE99A4",
"$  c #FE4F59",
"%  c #FC7179",
"&  c #FD5E67",
"*  c #FE8891",
"=  c #FD7079",
"-  c #FF1E26",
";  c #FD4953",
":  c #FE1D25",
">  c #FE4953",
",  c #FE96A0",
"<  c #FC747D",
"1  c #FE515A",
"2  c #C31820",
"3  c #FEB6BD",
"4  c #C7181F",
"5  c #FE8A93",
"6  c #FE4F58",
"7  c #FD7880",
"8  c #FD929B",
"9  c #FC7079",
"0  c #FEB2B9",
"q  c #B63140",
"w  c #DD8187",
"e  c #FC656D",
"r  c #FE343D",
"t  c #FD5D66",
"y  c #FD727A",
"u  c #FB717A",
"i  c #FC6870",
"p  c #FE5058",
"a  c #D41A22",
"s  c #F01D24",
"d  c #FC1E26",
"f  c #FC5A63",
"g  c #FD6F77",
"h  c #FD1F27",
"j  c #C3181F",
"k  c #C4181F",
"l  c #FD545E",
"z  c #FD525C",
"x  c #FC626B",
"c  c #FE1E27",
"v  c #FD8189",
"b  c #FC3A44",
"n  c #FB7B84",
"m  c #FC666E",
"M  c #FD838B",
"N  c #FD242D",
"B  c #FD5059",
"V  c #FD4A53",
"C  c #FC737B",
"Z  c #FA9CA8",
"A  c #FB7179",
"S  c #F7737B",
"D  c #FD848D",
"F  c #F6747D",
"G  c #C21820",
"H  c #BF1A22",
"J  c #EB1C24",
"K  c #FB747D",
"L  c #BE1921",
"P  c #C51921",
"I  c #DA1A21",
"U  c #FD5760",
"Y  c #FB1E26",
"T  c #FD343D",
"R  c #FC3C45",
"E  c #C9181F",
"W  c #D71921",
"Q  c #FD525B",
"!  c #FD464F",
"~  c #FD1E26",
"^  c #EC747B",
"/  c #C72B38",
"(  c #EB8A96",
")  c #FB757D",
"_  c #E71C24",
"`  c #FD7078",
"'  c #FD7F88",
"]  c #F1565F",
"[  c #FC828B",
"{  c #FC3F49",
"}  c #FC7780",
"|  c #FB767E",
" . c #FD8F98",
".. c #FD8790",
"X. c #FC878F",
"o. c #E97C88",
"O. c #FC7981",
"+. c #F8737B",
"@. c #FEB5BC",
"#. c #FC5F68",
"$. c #FD2931",
"%. c #F1ADB3",
"&. c #FCBDC2",
"*. c #FAA3A9",
"=. c #F9D5D8",
"-. c #FC7982",
";. c #FC7D85",
":. c #B01D27",
">. c #FC7A82",
",. c #FD777F",
"<. c #FE8B93",
"1. c #EE7580",
"2. c #FB717A",
"3. c #B81F28",
"4. c #F9717A",
"5. c #F8767E",
"6. c #FC848C",
"7. c #F4767F",
"8. c #F3747F",
"9. c #F7737C",
"0. c #F8747C",
"q. c #F8828A",
"w. c #F17880",
"e. c #F99DA8",
"r. c #F4727B",
"t. c #F78189",
"y. c #F1727A",
"u. c #F8525B",
"i. c #FE939B",
"p. c #FC6C74",
"a. c #FB3E46",
"s. c #F9727A",
"d. c #E2222A",
"f. c #BC1923",
"g. c #F5757E",
"h. c #C11920",
"j. c #B81820",
"k. c #FDA1AB",
"l. c #F9717A",
"z. c #F0757C",
"x. c #F97179",
"c. c #FD9DA7",
"v. c #FB2D36",
"b. c #F64D56",
"n. c #C51920",
"m. c #B91F27",
"M. c #FD96A1",
"N. c #BF1921",
"B. c #F43C46",
"V. c #FBAAB3",
"C. c #C1191F",
"Z. c #FABAC0",
"A. c #C3181F",
"S. c #F86169",
"D. c #A82735",
"F. c #DD1A22",
"G. c #EC1D24",
"H. c #FA262F",
"J. c #FB7179",
"K. c #F11D25",
"L. c #FB7179",
"P. c #F9212A",
"I. c #F9727A",
"U. c #FDADB6",
"Y. c #C11820",
"T. c #BC1B23",
"R. c #BD1B25",
"E. c #F79FAA",
"W. c #F7747D",
"Q. c #F4747D",
"!. c #FCB8C0",
"~. c #C21920",
"^. c #ED7A83",
"/. c #C01A22",
"(. c #BE1B24",
"). c #F8727B",
"_. c #BE1A24",
"`. c #FEB0B8",
"'. c #F42F38",
"]. c #FDA6AF",
"[. c #FD99A4",
"{. c #B91C26",
"}. c None",
"|. c #FCB9C2",
" X c #F3545D",
".X c #B31019",
"XX c #FB6972",
"oX c #E43D49",
"OX c #FD9AA5",
"+X c #F59DA8",
"@X c #F61E26",
"#X c #F81E26",
"$X c #F3767E",
"%X c #FB323B",
"&X c #F5242D",
"*X c #B91D24",
"=X c #FA4E57",
"-X c #BD1B23",
";X c #FB5E67",
":X c #F76B73",
">X c #EA2B34",
",X c #E41C24",
"<X c #D61B24",
"1X c #CE1B23",
"2X c #F76871",
"3X c #C31920",
"4X c #FA515A",
"5X c #F2757C",
"6X c #F87279",
"7X c #F64C55",
"8X c #ED7B81",
"9X c #FD2029",
"0X c #F4545E",
"qX c #F9B8C0",
"wX c #FC9AA5",
"eX c #F59FA9",
"rX c #FD2F38",
"tX c #E25F69",
"yX c #F1666F",
"uX c #F8B9C0",
"iX c #FC9AA5",
"pX c #FB5159",
"aX c #FDB6BD",
"sX c #F59CA6",
"dX c #FA717A",
"fX c #FD4D55",
"gX c #F1949B",
"hX c #FC98A2",
"jX c #F6757F",
"kX c #F8535B",
"lX c #FB6971",
"zX c #FE919A",
"xX c #F8878F",
"cX c #F7525B",
"vX c #FA8F97",
"bX c #F99098",
"nX c #F7B9C0",
"mX c #FDB6BD",
"MX c #FB8991",
"NX c #F9828A",
"BX c #FB7179",
"VX c #F47984",
"CX c #F89298",
"ZX c #F88B92",
"AX c #F9CDD1",
"SX c #F18890",
"DX c #FDB6BE",
"FX c #FBB9BF",
"GX c #F7727C",
"HX c #FCB8BE",
"JX c #F7BBC1",
"KX c #FCC3C8",
"LX c #F9ADB4",
"PX c #FBE2E5",
"IX c #232021",
"UX c #232021",
/* pixels */
"UXUXUXUXUXUXUXUXUXUXUXUXUXUXUXUXUXUXUXUXUXUXUXUXUXUXUXUXUXUXUXUXUXUXUXUXUXUXUXUXUXUXUXUXUXUXUXUXUXUXUXUXUXUXUXUXUXUXUXUXUXUXUXUX",
"UXUXUXUXUXUXUXUXUXUXUXUXUXUXUXUXUXUXUXUXUXUXUXUXUXUXUXUXUXUXUXUXUXUXUXUXUXUXUXUXUXUXUXUXUXUXUXUXUXUXUXUXUXUXUXUXUXUXUXUXUXUXUXUX",
"UXUXUXUXUXUXUXUXUXUXUXUXUXUXUXUXUXUXUXUXUXUXUXUXUXUXUXUXUXUXUXUXUXUXUXUXUXUXUXUXUXUXUXUXUXUXUXUXUXUXUXUXUXUXUXUXUXUXUXUXUXUXUXUX",
"UXUXUXUXUXUXUXUXUXUXUXUXUXUXUXUXUXUXUXUXUXUXUXUXUXUXUXUXUXUXUXUXUXUXUXUXUXUXUXUXUXUXUXUXUXUXUXUXUXUXUXUXUXUXUXUXUXUXUXUXUXUXUXUX",
"UXUXUXUXUXUXUXUXUXUXUXUXUXUXUXUXUXUXUXUXUXUXUXUXUXUXUXUXUXUXUXUXUXUXUXUXUXUXUXUXUXUXUXUXUXUXUXUXUXUXUXUXUXUXUXUXUXUXUXUXUXUXUXUX",
"UXUXUXUXUXUXUXUXUXUXUXUXUXUXUXUXUXUXUXUXUXUXUXUXUXUXUXUXUXUXUXUXUXUXUXUXUXUXUXUXUXUXUXUXUXUXUXUXUXUXUXUXUXUXUXUXUXUXUXUXUXUXUXUX",
"UXUXUXUXUXUXUXUXUXUXUXUXUXUXUXUXUXUXUXUXUXUXUXUXUXUXUXUXUXUXUXUXUXUXUXUXUXUXUXUXUXUXUXUXUXUXUXUXUXUXUXUXUXUXUXUXUXUXUXUXUXUXUXUX",
"UXUXUXUXUXUXUXUXUXUXUXUXUXUXUXUXUXUXUXUXUXUXUXUXUXUXUXUXUXUXUXUXUXUXUXUXUXUXUXUXUXUXUXUXUXUXUXUXUXUXUXUXUXUXUXUXUXUXUXUXUXUXUXUX",
"UXUXUXUXUXUXUXUXUXUXUXUXUXUXUXUXUXUXUXUXUXUXUXUXUXUXUXUXUXUXUXUXUXUXUXUXUXUXUXUXUXUXUXUXUXUXUXUXUXUXUXUXUXUXUXUXUXUXUXUXUXUXUXUX",
"UXUXUXUXUXUXUXUXUXUXUXUXUXUXUXUXUXUXUXUXUXUXUXUXUXUXUXUXUXUXUXUXUXUXUXUXUXUXUXUXUXUXUXUXUXUXUXUXUXUXUXUXUXUXUXUXUXUXUXUXUXUXUXUX",
"UXUXUXUXUXUXUXUXUXUXUXUXUXUXUXUXUXUXUXUXUXUXUXUXUXUXUXUXUXUXUXUXUXUXUXUXUXUXUXUXUXUXUXUXUXUXUXUXUXUXUXUXUXUXUXUXUXUXUXUXUXUXUXUX",
"UXUXUXUXUXUXUXUXUXUXUXUXUXUXUXUXUXUXUXUXUXUXUXUXUXUXUXUXUXUXUXUXUXUXUXUXUXUXUXUXUXUXUXUXUXUXUXUXUXUXUXUXUXUXUXUXUXUXUXUXUXUXUXUX",
"UXUXUXUXUXUXUXUXUXUXUXUXUXUXUXUXUXUXUXUXUXUXUXUXUXUXUXUXUXUXUXUXUXUXUXUXUXUXUXUXUXUXUXUXUXUXUXUXUXUXUXUXUXUXUXUXUXUXUXUXUXUXUXUX",
"UXUXUXUXUXUXUXUXUXUXUXUXUXUXUXUXUXUXUXUXUXUXUXUXUXUXUXUXUXUXUXUXUXUXUXUXUXUXUXUXUXUXUXUXUXUXUXUXUXUXUXUXUXUXUXUXUXUXUXUXUXUXUXUX",
"UXUXUXUXUXUXUXUXUXUXUXUXUXUXUXUXUXUXUXUXUXUXUXUXUXUXUXUXUXUXUXUXUXUXUXUXUXUXUXUXUXUXUXUXUXUXUXUXUXUXUXUXUXUXUXUXUXUXUXUXUXUXUXUX",
"UXUXUXUXUXUXUXUXUXUXUXUXUXUXUXUXUXUXUXUXUXUXUXUXUXUXUXUXUXUXUXUXUXUXUXUXUXUXUXUXUXUXUXUXUXUXUXUXUXUXUXUXUXUXUXUXUXUXUXUXUXUXUXUX",
"UXUXUXUXUXUXUXUXUXUXUXUXUXUXUXUXUXUXUXUXUXUXUXUXUXUXUXUXUXUXUXUXUXUXUXUXUXUXUXUXUXUXUXUXUXUXUXUXUXUXUXUXUXUXUXUXUXUXUXUXUXUXUXUX",
"UXUXUXUXUXUXUXUXUXUXUXUXUXUXUXUXUXUXUXUXUXUXUXUXUXUXUXUXUXUXUXUXUXUXUXUXUXUXUXUXUXUXUXUXUXUXUXUXUXUXUXUXUXUXUXUXUXUXUXUXUXUXUXUX",
"UXUXUXUXUXUXUXUXUXUXUXUXUXUXUXUXUXUXUXUXUXUXUXUXUXUXUXUXUXUXUXUXUXUXUXUXUXUXUXUXUXUXUXUXUXUXUXUXUXUXUXUXUXUXUXUXUXUXUXUXUXUXUXUX",
"UXUXUXUXUXUXUXUXUXUXUXUXUXUXUXUXUXUXUXUXUXUXUX%.JXnXuXqX|.!.Z.V.Z Z e.E.+XeXsXgX%.UXUXUXUXUXUXUXUXUXUXUXUXUXUXUXUXUXUXUXUXUXUXUX",
"UXUXUXUXUXUXUXUXUXUXUXUXUXUXUXUXUXUXUXUXUXSXLXFXHXDXmXaX3 3 U.c.# # [.OXwXiXhXvXbXxXyXUXUXUXUXUXUXUXUXUXUXUXUXUXUXUXUXUXUXUXUXUX",
"UXUXUXUXUXUXUXUXUXUXUXUXUXUXUXUXUXUXUXUXVX+.X.&.KX@.3 3 3 @.].# # # # # # # # zX..m kX] UXUXUXUXUXUXUXUXUXUXUXUXUXUXUXUXUXUXUXUX",
"UXUXUXUXUXUXUXUXUXUXUXUXUXUXUXUXUXUXUXo.GX9 NXAXPX&.0 0 0 0 `.k.M., , , , , ,  .lXB B cXtXUXUXUXUXUXUXUXUXUXUXUXUXUXUXUXUXUXUXUX",
"UXUXUXUXUXUXUXUXUXUXUXUXUXUXUXUXUXUXUXjXBX9 ZX=.=.*.8 8 8 8 i. .n ,.7 7 7 7 } #.b V @ pX0XUXUXUXUXUXUXUXUXUXUXUXUXUXUXUXUXUXUXUX",
"UXUXUXUXUXUXUXUXUXUXUXUXUXUXUXUXUXUX$XdX% O.M *.CXn 5 X X X X * < = o = = 9 #.V N $.{ 6 4X XUXUXUXUXUXUXUXUXUXUXUXUXUXUXUXUXUXUX",
"UXUXUXUXUXUXUXUXUXUXUXUXUXUXUXUXUXw.+.) v 5 X MX| % ' X X X X * K o + o = x 1 fX$.: 9X%X! u.] UXUXUXUXUXUXUXUXUXUXUXUXUXUXUXUXUX",
"UXUXUXUXUXUXUXUXUXUXUXUXUXUXUXUX1.5.n ..X X X [ % o y v X X X * < + + o x Q $ 6 rX: . ~ O b b.^ UXUXUXUXUXUXUXUXUXUXUXUXUXUXUXUX",
"UXUXUXUXUXUXUXUXUXUXUXUXUXUXUXUXt.6.5 X X X X ' + + o C [ X X * < o + e 1     @ T : . . c h v.B.UXUXUXUXUXUXUXUXUXUXUXUXUXUXUXUX",
"UXUXUXUXUXUXUXUXUXUXUXUXUXUXUXw q.X.<.X X X X ;.= + + + C M X * K u m z $     @ b . . . - d s d.q UXUXUXUXUXUXUXUXUXUXUXUXUXUXUX",
"UXUXUXUXUXUXUXUXUXUXUXUXUXUXUXUXy.0.>.D 5 X X -.= + + + = < D * < i l p @   6 @ { h - d s I P 3.UXUXUXUXUXUXUXUXUXUXUXUXUXUXUXUX",
"UXUXUXUXUXUXUXUXUXUXUXUXUXUXUXUXUXr.4.y O.M * } o o o o o % ) v p.l p p @ 1 f Q ! P.J a 4 G m.UXUXUXUXUXUXUXUXUXUXUXUXUXUXUXUXUX",
"UXUXUXUXUXUXUXUXUXUXUXUXUXUXUXUXUXUX7.A 9 y | e t & & & & & & t a.T r r r R S.R '.a 4 j C.H UXUXUXUXUXUXUXUXUXUXUXUXUXUXUXUXUXUX",
"UXUXUXUXUXUXUXUXUXUXUXUXUXUXUXUXUXUXw S 2.% o x B $ $ $ $ $ @ ; O : : : : h H.h F.2 k A.L q UXUXUXUXUXUXUXUXUXUXUXUXUXUXUXUXUXUX",
"UXUXUXUXUXUXUXUXUXUXUXUXUXUXUXUXUXUXUX^ 9.u o g U $           > O . . . . . - K.E 2 2 N.:.UXUXUXUXUXUXUXUXUXUXUXUXUXUXUXUXUXUXUX",
"UXUXUXUXUXUXUXUXUXUXUXUXUXUXUXUXUXUXUXUX8.l.% u e @           ; O . . . . . ~ I 2 2 h.j.UXUXUXUXUXUXUXUXUXUXUXUXUXUXUXUXUXUXUXUX",
"UXUXUXUXUXUXUXUXUXUXUXUXUXUXUXUXUXUXUXUXUXg.x.` g U           ; O . . . . - s E 2 Y.f.UXUXUXUXUXUXUXUXUXUXUXUXUXUXUXUXUXUXUXUXUX",
"UXUXUXUXUXUXUXUXUXUXUXUXUXUXUXUXUXUXUXUXUXUXF L.% m 1         > O . . . . d W j ~.R.UXUXUXUXUXUXUXUXUXUXUXUXUXUXUXUXUXUXUXUXUXUX",
"UXUXUXUXUXUXUXUXUXUXUXUXUXUXUXUXUXUXUXUXUXUX( W.J.g f         ; O . . . - G.4 k (.D.UXUXUXUXUXUXUXUXUXUXUXUXUXUXUXUXUXUXUXUXUXUX",
"UXUXUXUXUXUXUXUXUXUXUXUXUXUXUXUXUXUXUXUXUXUXUX^.).% i 1       > O . . . Y W j /./ UXUXUXUXUXUXUXUXUXUXUXUXUXUXUXUXUXUXUXUXUXUXUX",
"UXUXUXUXUXUXUXUXUXUXUXUXUXUXUXUXUXUXUXUXUXUXUXUXQ.I.9 f $     > O . . - J 4 P T.UXUXUXUXUXUXUXUXUXUXUXUXUXUXUXUXUXUXUXUXUXUXUXUX",
"UXUXUXUXUXUXUXUXUXUXUXUXUXUXUXUXUXUXUXUXUXUXUXUXUXz.s.i z @   > O . . Y a G _.UXUXUXUXUXUXUXUXUXUXUXUXUXUXUXUXUXUXUXUXUXUXUXUXUX",
"UXUXUXUXUXUXUXUXUXUXUXUXUXUXUXUXUXUXUXUXUXUXUXUXUXUXF A t 6   ; O c - _ n.H UXUXUXUXUXUXUXUXUXUXUXUXUXUXUXUXUXUXUXUXUXUXUXUXUXUX",
"UXUXUXUXUXUXUXUXUXUXUXUXUXUXUXUXUXUXUXUXUXUXUXUXUXUXw S XXz   > O . #X}.L q UXUXUXUXUXUXUXUXUXUXUXUXUXUXUXUXUXUXUXUXUXUXUXUXUXUX",
"UXUXUXUXUXUXUXUXUXUXUXUXUXUXUXUXUXUXUXUXUXUXUXUXUXUXUX^ 6X& @ ; O . _ 3X{.UXUXUXUXUXUXUXUXUXUXUXUXUXUXUXUXUXUXUXUXUXUXUXUXUXUXUX",
"UXUXUXUXUXUXUXUXUXUXUXUXUXUXUXUXUXUXUXUXUXUXUXUXUXUXUXUX8X:Xl ; N @X1X*XUXUXUXUXUXUXUXUXUXUXUXUXUXUXUXUXUXUXUXUXUXUXUXUXUXUXUXUX",
"UXUXUXUXUXUXUXUXUXUXUXUXUXUXUXUXUXUXUXUXUXUXUXUXUXUXUXUXUX5X;XV O ,X-XUXUXUXUXUXUXUXUXUXUXUXUXUXUXUXUXUXUXUXUXUXUXUXUXUXUXUXUXUX",
"UXUXUXUXUXUXUXUXUXUXUXUXUXUXUXUXUXUXUXUXUXUXUXUXUXUXUXUXUXUX2X=X&X<XUXUXUXUXUXUXUXUXUXUXUXUXUXUXUXUXUXUXUXUXUXUXUXUXUXUXUXUXUXUX",
"UXUXUXUXUXUXUXUXUXUXUXUXUXUXUXUXUXUXUXUXUXUXUXUXUXUXUXUXUXUX( 7X>X.XUXUXUXUXUXUXUXUXUXUXUXUXUXUXUXUXUXUXUXUXUXUXUXUXUXUXUXUXUXUX",
"UXUXUXUXUXUXUXUXUXUXUXUXUXUXUXUXUXUXUXUXUXUXUXUXUXUXUXUXUXUXUXoX/ UXUXUXUXUXUXUXUXUXUXUXUXUXUXUXUXUXUXUXUXUXUXUXUXUXUXUXUXUXUXUX",
"UXUXUXUXUXUXUXUXUXUXUXUXUXUXUXUXUXUXUXUXUXUXUXUXUXUXUXUXUXUXUXUXUXUXUXUXUXUXUXUXUXUXUXUXUXUXUXUXUXUXUXUXUXUXUXUXUXUXUXUXUXUXUXUX",
"UXUXUXUXUXUXUXUXUXUXUXUXUXUXUXUXUXUXUXUXUXUXUXUXUXUXUXUXUXUXUXUXUXUXUXUXUXUXUXUXUXUXUXUXUXUXUXUXUXUXUXUXUXUXUXUXUXUXUXUXUXUXUXUX",
"UXUXUXUXUXUXUXUXUXUXUXUXUXUXUXUXUXUXUXUXUXUXUXUXUXUXUXUXUXUXUXUXUXUXUXUXUXUXUXUXUXUXUXUXUXUXUXUXUXUXUXUXUXUXUXUXUXUXUXUXUXUXUXUX",
"UXUXUXUXUXUXUXUXUXUXUXUXUXUXUXUXUXUXUXUXUXUXUXUXUXUXUXUXUXUXUXUXUXUXUXUXUXUXUXUXUXUXUXUXUXUXUXUXUXUXUXUXUXUXUXUXUXUXUXUXUXUXUXUX",
"UXUXUXUXUXUXUXUXUXUXUXUXUXUXUXUXUXUXUXUXUXUXUXUXUXUXUXUXUXUXUXUXUXUXUXUXUXUXUXUXUXUXUXUXUXUXUXUXUXUXUXUXUXUXUXUXUXUXUXUXUXUXUXUX",
"UXUXUXUXUXUXUXUXUXUXUXUXUXUXUXUXUXUXUXUXUXUXUXUXUXUXUXUXUXUXUXUXUXUXUXUXUXUXUXUXUXUXUXUXUXUXUXUXUXUXUXUXUXUXUXUXUXUXUXUXUXUXUXUX",
"UXUXUXUXUXUXUXUXUXUXUXUXUXUXUXUXUXUXUXUXUXUXUXUXUXUXUXUXUXUXUXUXUXUXUXUXUXUXUXUXUXUXUXUXUXUXUXUXUXUXUXUXUXUXUXUXUXUXUXUXUXUXUXUX",
"UXUXUXUXUXUXUXUXUXUXUXUXUXUXUXUXUXUXUXUXUXUXUXUXUXUXUXUXUXUXUXUXUXUXUXUXUXUXUXUXUXUXUXUXUXUXUXUXUXUXUXUXUXUXUXUXUXUXUXUXUXUXUXUX",
"UXUXUXUXUXUXUXUXUXUXUXUXUXUXUXUXUXUXUXUXUXUXUXUXUXUXUXUXUXUXUXUXUXUXUXUXUXUXUXUXUXUXUXUXUXUXUXUXUXUXUXUXUXUXUXUXUXUXUXUXUXUXUXUX",
"UXUXUXUXUXUXUXUXUXUXUXUXUXUXUXUXUXUXUXUXUXUXUXUXUXUXUXUXUXUXUXUXUXUXUXUXUXUXUXUXUXUXUXUXUXUXUXUXUXUXUXUXUXUXUXUXUXUXUXUXUXUXUXUX",
"UXUXUXUXUXUXUXUXUXUXUXUXUXUXUXUXUXUXUXUXUXUXUXUXUXUXUXUXUXUXUXUXUXUXUXUXUXUXUXUXUXUXUXUXUXUXUXUXUXUXUXUXUXUXUXUXUXUXUXUXUXUXUXUX",
"UXUXUXUXUXUXUXUXUXUXUXUXUXUXUXUXUXUXUXUXUXUXUXUXUXUXUXUXUXUXUXUXUXUXUXUXUXUXUXUXUXUXUXUXUXUXUXUXUXUXUXUXUXUXUXUXUXUXUXUXUXUXUXUX",
"UXUXUXUXUXUXUXUXUXUXUXUXUXUXUXUXUXUXUXUXUXUXUXUXUXUXUXUXUXUXUXUXUXUXUXUXUXUXUXUXUXUXUXUXUXUXUXUXUXUXUXUXUXUXUXUXUXUXUXUXUXUXUXUX",
"UXUXUXUXUXUXUXUXUXUXUXUXUXUXUXUXUXUXUXUXUXUXUXUXUXUXUXUXUXUXUXUXUXUXUXUXUXUXUXUXUXUXUXUXUXUXUXUXUXUXUXUXUXUXUXUXUXUXUXUXUXUXUXUX",
"UXUXUXUXUXUXUXUXUXUXUXUXUXUXUXUXUXUXUXUXUXUXUXUXUXUXUXUXUXUXUXUXUXUXUXUXUXUXUXUXUXUXUXUXUXUXUXUXUXUXUXUXUXUXUXUXUXUXUXUXUXUXUXUX"
};
