/* XPM */
static char *_a330ab240944160cb7b8130cba1a9c8LvaAP4Pij6VWk4mq[] = {
/* columns rows colors chars-per-pixel */
"64 64 234 2 ",
"   c None",
".  c #232021",
"X  c #232021",
"o  c #232021",
"O  c #8B9230",
"+  c #E0BD0D",
"@  c #A9A124",
"#  c #96982B",
"$  c #E2BD0C",
"%  c #A09D27",
"&  c #A7A025",
"*  c #808D34",
"=  c #F4C705",
"-  c #BEAB1B",
";  c #232021",
":  c #A59F25",
">  c #FFCC00",
",  c #232021",
"<  c #FFCD00",
"1  c #232021",
"2  c #232021",
"3  c #232021",
"4  c #232021",
"5  c #232021",
"6  c #FECC00",
"7  c #FDCB01",
"8  c #232021",
"9  c #FFCE00",
"0  c #FACA02",
"q  c #232021",
"w  c #232021",
"e  c #F7C803",
"r  c #232021",
"t  c #232021",
"y  c #7F8C35",
"u  c #232021",
"i  c #BDAB1B",
"p  c #DFBC0D",
"a  c #232021",
"s  c #232021",
"d  c #EFC407",
"f  c #FECB01",
"g  c #97982B",
"h  c #D1B513",
"j  c #232021",
"k  c #232021",
"l  c #232021",
"z  c #FAC902",
"x  c #F9C902",
"c  c #BFAC1A",
"v  c #232021",
"b  c #FBCA02",
"n  c #232021",
"m  c #95972C",
"M  c #DDBB0E",
"N  c #F4C605",
"B  c #F0C406",
"V  c #D7B811",
"C  c #232021",
"Z  c #ECC208",
"A  c #899131",
"S  c #93962D",
"D  c #A6A025",
"F  c #ACA322",
"G  c #C2AD19",
"H  c #8C9230",
"J  c #232021",
"K  c #BFAC1B",
"L  c #D3B612",
"P  c #F3C605",
"I  c #232021",
"U  c #232021",
"Y  c #232021",
"T  c #232021",
"R  c #232021",
"E  c #232021",
"W  c #232021",
"Q  c #232021",
"!  c #BBAA1C",
"~  c #EDC308",
"^  c #E8C109",
"/  c #B2A620",
"(  c #FCCB01",
")  c #232021",
"_  c #232021",
"`  c #232021",
"'  c #232021",
"]  c #E5BF0B",
"[  c #CCB315",
"{  c #8A9230",
"}  c #C6B017",
"|  c #232021",
" . c #232021",
".. c #232021",
"X. c #F0C506",
"o. c #C4AF18",
"O. c #99992A",
"+. c #A29E26",
"@. c #F6C804",
"#. c #B4A61F",
"$. c #232021",
"%. c #232021",
"&. c #232021",
"*. c #EAC109",
"=. c #BCAB1C",
"-. c #7C8B36",
";. c #D9B910",
":. c #F8C803",
">. c #F5C704",
",. c #232021",
"<. c #232021",
"1. c #DCBA0F",
"2. c #B7A81E",
"3. c #232021",
"4. c #EDC307",
"5. c #232021",
"6. c #9B9A29",
"7. c #F9C903",
"8. c #232021",
"9. c #232021",
"0. c #BEAC1B",
"q. c #BCAA1C",
"w. c #D0B413",
"e. c #F1C506",
"r. c #91952E",
"t. c #C5AF18",
"y. c #9A9A2A",
"u. c #B0A421",
"i. c #AFA421",
"p. c #848F33",
"a. c #98992A",
"s. c #848E33",
"d. c #B8A91D",
"f. c #A49E26",
"g. c #B8A81D",
"h. c #D8B910",
"j. c #8D932F",
"k. c #8C932F",
"l. c #C3AE19",
"z. c #F8C903",
"x. c #98992B",
"c. c #ADA322",
"v. c #C1AD19",
"b. c #E3BE0C",
"n. c #98982B",
"m. c #CCB215",
"M. c #EAC208",
"N. c #C0AD1A",
"B. c #D5B711",
"V. c #ABA223",
"C. c #E0BD0D",
"Z. c #A9A123",
"A. c #232021",
"S. c #DEBC0D",
"D. c #93962C",
"F. c #B4A71F",
"G. c #C9B116",
"H. c #EAC209",
"J. c #9D9B28",
"K. c #232021",
"L. c #A8A124",
"P. c #DEBC0E",
"I. c #A8A024",
"U. c #F2C505",
"Y. c #DCBA0E",
"T. c #E7C00A",
"R. c #FCCA01",
"E. c #FBCA01",
"W. c #9C9A29",
"Q. c #E6BF0A",
"!. c #232021",
"~. c #232021",
"^. c #232021",
"/. c #232021",
"(. c #232021",
"). c #232021",
"_. c #232021",
"`. c #232021",
"'. c #232021",
"]. c #232021",
"[. c #232021",
"{. c #A59F25",
"}. c #DABA0F",
"|. c #B0A521",
" X c #ECC308",
".X c #B5A71E",
"XX c #AAA223",
"oX c #232021",
"OX c #9F9C28",
"+X c #BEAB1B",
"@X c #92962D",
"#X c #A7A024",
"$X c #C8B017",
"%X c #D0B513",
"&X c #232021",
"*X c #232021",
"=X c #232021",
"-X c #E4BF0B",
";X c #B9A91D",
":X c #232021",
">X c #232021",
",X c #B3A620",
"<X c #E6C00A",
"1X c #232021",
"2X c #9E9C28",
"3X c #BAAA1C",
"4X c #AEA421",
"5X c #232021",
"6X c #D8B810",
"7X c #ACA222",
"8X c #CDB315",
"9X c #B5A71F",
"0X c #D4B712",
"qX c #FECB00",
"wX c #DCBB0E",
"eX c #91952D",
"rX c #9D9B29",
"tX c #9C9B29",
"yX c #232021",
"uX c #232021",
"iX c #232021",
"pX c #232021",
"aX c #232021",
"sX c #879032",
"dX c #A69F25",
"fX c #232021",
"gX c #B6A71E",
"hX c #EBC208",
"jX c #232021",
"kX c #8F942E",
"lX c #A9A124",
"zX c #232021",
"xX c #232021",
"cX c #232021",
/* pixels */
", , , , , , , , , , , , , , , , , , , , , , , 4 q q 8 fX<.,.sXS 6.2XtXm A uX9.t aX3 q 5 , , , , , , , , , , , , , , , , , , , , ",
", , , , , , , , , , , , , , , , , , , , 2 3 , t jX6.0.;.hX>.0 7 6 > 6 7 b @.4.M o.+.-.%.n 3 4 , , , , , , , , , , , , , , , , , ",
", , , , , , , , , , , , , , , , , , 5 1 s -.,Xp :.< 9 < < > > > > > > > > > < < 9 < 0 ] ! I E 5 1 , , , , , , , , , , , , , , , ",
", , , , , , , , , , , , , , , , 5 1 J a.V x < < > > > > > > > > > > > > > > > > > > > < < R.p f.<., 1 , , , , , , , , , , , , , ",
", , , , , , , , , , , , , , 2 1 r J.b.> < > > > > > > > > > > > > > > > > > > > > > > > > > < < M.V.v 1 2 , , , , , , , , , , , ",
", , , , , , , , , , , , , 1 k A 1.> < > > > > > > > > > > > > > > > > > > > > > > > > > > > > > < < Q.x.u 1 , , , , , , , , , , ",
", , , , , , , , , , , , 1 v i 0 < > > > > > > > > > > > > > > > > > > > > > > > > > > > > > > > > > < f m.~.4 2 , , , , , , , , ",
", , , , , , , , , , 2 , y + < > > > > > > > > > > > > > > > > > > > > > > > > > > > > > > > > > > > > > < Z r.w 4 , , , , , , , ",
", , , , , , , , , 2 w n.P < > > > > > > > > > > > > > > > > > > > > > > > > > > > > > > > > > > > > > > > < z F Y 1 , , , , , , ",
", , , , , , , , 4 j I.0 < > > > > > > > > > > > > > > > > > > > > > > > > > > > > > > > > > > > > > > > > > > > q.].1 , , , , , ",
", , , , , , , 2 j F 7 > > > > > > > > > > > > > > > > > > > > > > > > > > > > > > > > > > > > > > > > > > > > > > G '.1 , , , , ",
", , , , , , 2 l D 7 > > > > > > > > > > > > > > > > > > > > > > > > > > > > > > > > > > > > > > > > > > > > > > > < i A.4 , , , ",
", , , , , , , m z > > > > > > > > > > > > > > > > > > > > > > > > > > > > > > > > > > > > > > > > > > > > > > > > > > c.w 2 , , ",
", , , , , 1 U e.< > > > > > > > > > > > > > > > > > > > > > > > > > > > > > > > > > > > > > > > > > > > > > > > > > > 0 @X4 , , ",
", , , , 1 W Y.< > > > > > > > > > > > > > > > > > > > > > > > > > > > > > > > > > > > > > > > > > > > > > > > > > > > <  X) 1 , ",
", , , , l F.< > > > > > > > > > > > > > > > > > > > > > > > > > > > > > > > > > > > > > > > > > > > > > > > > > > > > > < [ u 4 ",
", , , 1 y e > > > > > > > > > > > > > > > > > > > > > > > > > > > > > > > > > > > > > > > > > > > > > > > > > > > > > > > f g 1 ",
", , 2 u h < > > > > > > > > > > > > > > > > > > > > > > > > > > > > > > > > > > > > > > > > > > > > > > > > > > > > > > > 9 -X1X",
", , 1 H ( > > > > > > > > > > > > > > > > > > > > > > > > > > > > > > > > > > > > > > > > > > > > > > > > > > > > > > < > <X: r ",
", 2 u L < > > > > > > > > > > > > > > > > > > > > > > > > > > > > > > > > > > > > > > > > > > > > > > > > > > > > < 6 p OX' 2 4 ",
", 3 :Xz > > > > > > > > > > > > > > > > > > > > > > > > > > > > > > > > > > > > > > > > > > > > > > > > > > > < 7 ;.m r 1 1 , , ",
", 8 i < > > > > > > > > > > > > > > > > > > > > > > > > > > > > > > > > > > > > > > > > > > > > > > > > > < 0 h O C 1 5 , , , , ",
"1 &.*.< > > > > > > > > > > > > > > > > > > > > > > > > > > > > > > > > > > > > > > > > > > > > > > > < e G.s.Y 3 4 , , , , , , ",
"q A f > > > > > > > > > > > > > > > > > > > > > > > > > > > > > > > > > > > > > > > > > > > > > < < N v.U j 3 2 , , , , , , , , ",
", 9X9 > > > > > > > > > > > > > > > > > > > > > > > > > > > > > > > > > > > > > > > > > > > < < B g.).w 3 2 , , , , , , , , , , ",
"5X6X< > > > > > > > > > > > > > > > > > > > > > > > > > > > > > > > > > > > > > > > > > < < H.i._ 8 1 , , , , , , , , , , , , , ",
"iX4.< > > > > > > > > > > > > > > > > > > > > > > > > > > > > > > > > > > > > > > > < > ] D `., 1 , , , , , , , , , , , , , , , ",
"8.7.> > > > > > > > > > > > > > > > > > > > > > > > > > > > > > > > > > > > > > < 6 S.W.W 2 1 , , , , , , , , , , , , , , , , , ",
"O.qX> > > > > > > > > > > > > > > > > > > > > > > > > > > > > > > > > > > > < ( V S r 1 1 , , , , , , , , , , , , , , , , , , , ",
"7X> > > > > > > > > > > > > > > > > > > > > > > > > > > > > > > > > > > < x %X{ =X3 5 , , , , , , , , , , , , , , , , , , , , , ",
";X< > > > > > > > > > > > > > > > > > > > > > > > > > > > > > > > > < e $X* a 3 2 , , , , , , , , , , , , , , , , , , , , , , , ",
"c < > > > > > > > > > > > > > > > > > > > > > > > > > > > > > > > :.- &X3.3 2 , , , , , , , , , , , , , , , , , , , , , , , , , ",
"c < > > > > > > > > > > > > > > > > > > > > > > > > > > > > > > > = &  .2 1 , , , , , , , , , , , , , , , , , , , , , , , , , , ",
"3X< > > > > > > > > > > > > > > > > > > > > > > > > > > > > > > > > > ^ XX*X| 1 , , , , , , , , , , , , , , , , , , , , , , , , ",
"4X< > > > > > > > > > > > > > > > > > > > > > > > > > > > > > > > > > < < ~ / $.8 1 , , , , , , , , , , , , , , , , , , , , , , ",
"rX6 > > > > > > > > > > > > > > > > > > > > > > > > > > > > > > > > > > > < < X.2.. w 3 , , , , , , , , , , , , , , , , , , , , ",
"yX0 > > > > > > > > > > > > > > > > > > > > > > > > > > > > > > > > > > > > > < < P c /.k 3 2 , , , , , , , , , , , , , , , , , ",
"$.X.> > > > > > > > > > > > > > > > > > > > > > > > > > > > > > > > > > > > > > > > < @.} y T 3 2 , , , , , , , , , , , , , , , ",
"t wX< > > > > > > > > > > > > > > > > > > > > > > > > > > > > > > > > > > > > > > > > > < x [ p.o 3 2 , , , , , , , , , , , , , ",
"8 =.9 > > > > > > > > > > > > > > > > > > > > > > > > > > > > > > > > > > > > > > > > > > > < b   H [.1 5 , , , , , , , , , , , ",
"q eX> > > > > > > > > > > > > > > > > > > > > > > > > > > > > > > > > > > > > > > > > > > > > > < 7 h.D._.1 5 , , , , , , , , , ",
"1 pXd < > > > > > > > > > > > > > > > > > > > > > > > > > > > > > > > > > > > > > > > > > > > > > > < 6 P.y.K.1 1 , , , , , , , ",
", ..} < > > > > > > > > > > > > > > > > > > > > > > > > > > > > > > > > > > > > > > > > > > > > > > > > < > $ % &.2 1 , , , , , ",
", 3 { 7 > > > > > > > > > > > > > > > > > > > > > > > > > > > > > > > > > > > > > > > > > > > > > > > > > > < < T.L.5., 1 , , , ",
", 4 E M < > > > > > > > > > > > > > > > > > > > > > > > > > > > > > > > > > > > > > > > > > > > > > > > > > > > < < Z |._ n 1 , ",
", , 1 O.> > > > > > > > > > > > > > > > > > > > > > > > > > > > > > > > > > > > > > > > > > > > > > > > > > > > > > < < d .X; w ",
", , 5 r M < > > > > > > > > > > > > > > > > > > > > > > > > > > > > > > > > > > > > > > > > > > > > > > > > > > > > > > < 9 p  .",
", , , 1 j.E.> > > > > > > > > > > > > > > > > > > > > > > > > > > > > > > > > > > > > > > > > > > > > > > > > > > > > > > < #XoX",
", , , 2 T o.< > > > > > > > > > > > > > > > > > > > > > > > > > > > > > > > > > > > > > > > > > > > > > > > > > > > > > < }.%.1 ",
", , , , 1 ` ^ < > > > > > > > > > > > > > > > > > > > > > > > > > > > > > > > > > > > > > > > > > > > > > > > > > > > < >.y 1 , ",
", , , , , 1 k.z.> > > > > > > > > > > > > > > > > > > > > > > > > > > > > > > > > > > > > > > > > > > > > > > > > > > 6 {.n , , ",
", , , , , , Q @ 6 > > > > > > > > > > > > > > > > > > > > > > > > > > > > > > > > > > > > > > > > > > > > > > > > > < N.a 4 , , ",
", , , , , , 4 a ! < > > > > > > > > > > > > > > > > > > > > > > > > > > > > > > > > > > > > > > > > > > > > > > > < w.!.1 , , , ",
", , , , , , , 1 C G < > > > > > > > > > > > > > > > > > > > > > > > > > > > > > > > > > > > > > > > > > > > > > < B.R 1 , , , , ",
", , , , , , , , 1 t K > > > > > > > > > > > > > > > > > > > > > > > > > > > > > > > > > > > > > > > > > > > > < h R 1 , , , , , ",
", , , , , , , , , 1 s u.b < > > > > > > > > > > > > > > > > > > > > > > > > > > > > > > > > > > > > > > > > > l.J 1 , , , , , , ",
", , , , , , , , , , 5 ..# d < > > > > > > > > > > > > > > > > > > > > > > > > > > > > > > > > > > > > > < e Z.s 1 , , , , , , , ",
", , , , , , , , , , , 2 2 (.L > < > > > > > > > > > > > > > > > > > > > > > > > > > > > > > > > > > > < C.I 8 4 , , , , , , , , ",
", , , , , , , , , , , , , 1 t +.~ < > > > > > > > > > > > > > > > > > > > > > > > > > > > > > > > < N / ' 1 , , , , , , , , , , ",
", , , , , , , , , , , , , , 4 , X d.U.< < > > > > > > > > > > > > > > > > > > > > > > > > > < < e t.,.8 1 , , , , , , , , , , , ",
", , , , , , , , , , , , , , , , 1 Q ) #.*.> < > > > > > > > > > > > > > > > > > > > > > < < B K ^.k 1 , , , , , , , , , , , , , ",
", , , , , , , , , , , , , , , , , , 1 | v g 8XB > 9 < < > > > > > > > > > > > > < 9 < N 0X>X` l 3 , , , , , , , , , , , , , , , ",
", , , , , , , , , , , , , , , , , , , , 1 3 3.9.kX2.V Z e 7 > < < < < < > f 7.d 1.0.g zXa 1 1 , , , , , , , , , , , , , , , , , ",
", , , , , , , , , , , , , , , , , , , , , , , 1 q , s 5.cXS dX#.=.+Xi gXlXg 8.xXC 8 q 3 2 , , , , , , , , , , , , , , , , , , , "
};
