/* XPM */
static const char *door1[] = {
/* columns rows colors chars-per-pixel */
"64 64 153 2 ",
"   c #001331",
".  c #11233F",
"X  c #874400",
"o  c #894600",
"O  c #834906",
"+  c #8E4A00",
"@  c #814C0A",
"#  c #934D00",
"$  c #984E01",
"%  c #8C5509",
"&  c #955000",
"*  c #985200",
"=  c #9F5907",
"-  c #A55601",
";  c #A25902",
":  c #A85801",
">  c #A15E08",
",  c #9C6409",
"<  c #9F6C0F",
"1  c #9F7414",
"2  c #A46107",
"3  c #AD6302",
"4  c #AD6905",
"5  c #A0660A",
"6  c #A56A0C",
"7  c #AD6D08",
"8  c #B36500",
"9  c #B56B02",
"0  c #BD6F00",
"q  c #B06F08",
"w  c #AC720C",
"e  c #B67106",
"r  c #BE7000",
"t  c #BA7A07",
"y  c #B27209",
"u  c #B67C0A",
"i  c #BB7D09",
"p  c #A77711",
"a  c #A97610",
"s  c #A47A11",
"d  c #AB7B11",
"f  c #B07F10",
"g  c #837327",
"h  c #C06F00",
"j  c #C17201",
"k  c #C57D02",
"l  c #C87D00",
"z  c #C27914",
"x  c #897D7F",
"c  c #BE8B05",
"v  c #B3840C",
"b  c #BD8309",
"n  c #B38A0F",
"m  c #BC8B0D",
"M  c #AD8112",
"N  c #B28410",
"B  c #B58A11",
"V  c #B88C10",
"C  c #BD9210",
"Z  c #B79817",
"A  c #BC9537",
"S  c #B9903C",
"D  c #C88000",
"F  c #C08508",
"G  c #C08F09",
"H  c #C99606",
"J  c #C3930D",
"K  c #CA9709",
"L  c #C69B0D",
"P  c #CC9D0C",
"I  c #D39D06",
"U  c #D29F09",
"Y  c #C19710",
"T  c #C39910",
"R  c #CEA20C",
"E  c #D5A107",
"W  c #D9A205",
"Q  c #DEAC06",
"!  c #D3A40A",
"~  c #D7AA0A",
"^  c #DAAD09",
"/  c #CBA510",
"(  c #C2A817",
")  c #E4B306",
"_  c #E9B704",
"`  c #ECBB04",
"'  c #E4BD0B",
"]  c #F1BE02",
"[  c #E7B815",
"{  c #EEBD10",
"}  c #D18F3C",
"|  c #C29A32",
" . c #D2913F",
".. c #F5C302",
"X. c #F9C600",
"o. c #FFCC00",
"O. c #F3C10C",
"+. c #FBCC09",
"@. c #FFD200",
"#. c #F3C91A",
"$. c #E7C437",
"%. c #CA8F41",
"&. c #CD9041",
"*. c #D29140",
"=. c #CF995A",
"-. c #DCC15E",
";. c #D9C164",
":. c #F3D26D",
">. c #E6CC77",
",. c #ECCF70",
"<. c #A6938C",
"1. c #AA958C",
"2. c #BEA8A2",
"3. c #C4A58B",
"4. c #CEB19F",
"5. c #C6B3AC",
"6. c #D5B6A3",
"7. c #D8B8A5",
"8. c #D7C28A",
"9. c #D7C390",
"0. c #E7CE85",
"q. c #EAD89D",
"w. c #D9CAA6",
"e. c #DECEB2",
"r. c #E2CBAF",
"t. c #E9D9A4",
"y. c #E7D9AF",
"u. c #E4CCB2",
"i. c #EECBB7",
"p. c #EECBB8",
"a. c #E7D9B1",
"s. c #E7D4BB",
"d. c #E7DBBB",
"f. c #E8DCBE",
"g. c #FAD1B6",
"h. c #FBD5BD",
"j. c #A4A8C2",
"k. c #EADEC9",
"l. c #F3D6C3",
"z. c #F4DECD",
"x. c #FDDCCB",
"c. c #EBE0CC",
"v. c #F9E0CF",
"b. c #F1E5D6",
"n. c #FCE2D2",
"m. c #FDE3D3",
"M. c #F8EADF",
"N. c #CDCEEC",
"B. c #D0D2EF",
"V. c #E9DCE5",
"C. c #EADEE9",
"Z. c #EAE2EE",
"A. c #FEEEE4",
/* pixels */
"  6.g.A.x.0 0 0 0 0 0 0 r r r r r r r r r r r r r r r r r r j 0 0 0 r r r j r r r r r r r r r r r r r r r r j 0 0 0 0 *.m.m.g.1.",
"  6.g.A.x.0 0 0 0 0 0 r : : : : : : : : : : : : : : - ; = > , u u u i u y , 2 > > - : : : : : : : : : : : : ; 0 0 0 0 *.m.m.g.1.",
"  6.g.A.x.0 0 0 0 0 0 r + $ r 0 0 0 0 0 0 0 0 9 w d B L ^ _ ..X.X.o.o.X.X..._ ^ L B d w 9 0 0 0 0 0 0 0 0 9 X 8 0 0 0 *.m.m.g.1.",
"  6.g.A.x.0 0 0 0 0 0 r + & l l l l l l k i N T ) X.@.@.o.o.X.X.X.X.X.X.o.X.o.o.@.@.X.) Y N i k l k l l l r X 8 0 0 0 *.m.m.g.1.",
"  6.g.A.x.0 0 0 0 0 0 r + # r 0 0 0 9 w N ! X.@.o.o.o.o.o.o.o.o.o.o.o.o.o.X.o.o.o.o.o.@.@.X.! M w 0 0 0 0 8 X 8 0 0 0 *.m.m.g.1.",
"  6.g.A.x.0 0 0 0 0 0 r + # j 0 0 w N Q @.@.o.o.o.o.o.o.o.o.o.o.o.o.o.o.o.o.o.o.o.o.o.o.o.o.@.o.^ M w 0 0 8 X 8 0 0 0 *.m.m.g.1.",
"  6.g.A.x.0 0 0 0 0 0 r + # j 9 d R X.@.o.o.o.o.o.o.o.o.o.o.o.o.o.o.o.o.o.o.o.o.o.o.o.o.o.o.o.o.@.X.P d 0 8 X 8 0 0 0 *.m.m.g.1.",
"  6.g.A.x.0 0 0 0 0 0 r + # y B ` @.o.o.o.o.o.o.o.o.o.o.o.o.o.o.o.o.o.o.o.o.o.o.o.o.o.o.o.o.o.o.o.o.@._ N 4 X 8 0 0 0 *.m.m.g.1.",
"  6.g.A.x.0 0 0 0 0 0 r + % L X.@.o.o.o.o.o.o.o.o.o.o.o.o.o.o.o.o.o.o.o.o.o.o.o.o.o.o.o.o.o.o.o.o.o.o.@...m O 8 0 0 0 *.m.m.g.1.",
"  6.g.A.x.0 0 0 0 0 0 r % G o.o.o.o.o.o.o.o.o.o.o.o.o.o.o.o.o.o.o.o.o.o.o.o.o.o.o.o.o.o.o.o.o.o.o.o.o.o.@.o.v 4 0 0 0 *.m.m.g.1.",
"  6.g.A.x.0 0 0 0 0 0 y G o.o.o.o.o.o.o.o.o.o.o.o.o.o.o.o.o.o.o.o.o.o.o.o.o.o.o.o.o.o.o.o.o.o.o.o.o.o.o.o.o.X.H e 0 0 *.m.m.g.1.",
"  6.g.A.x.0 0 0 0 0 y E o.o.o.o.o.o.o.o.o.o.o.o.o.o.o.o.o.o.o.o.o.o.o.o.o.o.o.o.o.o.o.o.o.o.o.o.o.o.o.o.o.o.o.o.I e 0 *.m.m.g.1.",
"  6.g.A.x.0 0 0 0 y P o.o.o.o.o.o.o.o.o.o.o.o.o.o.o.o.o.o.o.o.o.o.o.o.o.o.o.o.o.o.o.o.o.o.o.o.o.o.o.o.o.o.o.X.o.o.K e *.m.m.g.1.",
"  6.g.A.x.0 0 0 y J o.o.o.o.o.o.o.o.o.o.o.o.o.o.o.o.o.o.o.o.o.o.o.o.o.o.o.o.o.o.o.o.o.o.o.o.o.o.o.o.o.o.o.o.o.o.o.X.m %.m.m.g.1.",
"  6.g.A.x.0 0 9 N X.o.o.o.o.o.o.o.o.o.o.o.o.o.o.o.o.o.o.o.o.o.o.o.o.o.o.o.o.o.o.o.o.o.o.o.o.o.o.o.o.o.o.o.o.o.o.o.o...A z.m.g.1.",
"  6.g.A.x.0 0 a _ @.o.o.o.o.o.o.o.o.o.o.o.o.o.o.o.o.o.o.o.o.o.o.o.o.o.o.o.o.o.o.o.o.o.o.o.o.o.o.o.o.o.o.o.o.o.o.o.o.o.[ e.m.g.1.",
"  6.g.A.x.0 q L @.o.o.o.o.o.o.o.o.o.o.o.o.o.o.o.o.o.o.o.o.o.o.o.o.o.o.o.o.o.o.o.o.o.o.o.o.o.o.o.o.o.o.o.o.o.o.o.o.o.X.+.>.v.g.1.",
"  6.g.A.x.0 d X.o.o.o.o.o.o.o.o.o.o.o.o.o.o.o.o.o.o.o.o.o.o.o.o.o.o.o.o.o.o.o.o.o.o.o.o.o.o.o.o.o.o.o.o.o.o.o.o.o.o.@.+.:.x.g.1.",
"  6.g.A.x.e P @.X.o.o.o.o.o.o.o.o.o.o.o.o.o.o.o.o.o.o.o.o.o.o.o.o.o.o.o.o.o.o.o.o.o.o.o.o.o.o.o.o.o.o.o.o.o.o.o.@.o.) | s.m.g.1.",
"  6.g.A.x.d X.o.o.o.o.o.o.o.o.o.o.o.o.o.o.o.o.o.o.o.o.o.o.o.o.o.o.o.o.o.o.o.o.o.o.o.o.o.o.o.o.o.o.o.o.o.o.o.@.o.Q v w &.m.m.g.1.",
"  6.g.A.l.J @.X.o.o.o.o.o.o.o.o.o.o.o.o.o.o.o.o.o.o.o.o.o.o.o.o.o.o.o.o.o.o.o.o.o.o.o.o.o.o.o.o.o.o.o.o.@.X.L d w 0 0 *.m.m.g.1.",
"  6.g.A.u._ o.o.o.o.o.o.o.o.o.o.o.o.o.o.o.o.o.o.o.o.o.o.o.o.o.o.o.o.o.o.o.o.o.o.o.o.o.o.o.o.o.o.o.o.@.X.! d @ 8 0 0 0 *.m.m.g.1.",
"  6.g.A.9.o.o.o.o.o.o.o.o.o.o.o.o.o.o.o.o.o.o.o.o.o.o.o.o.o.o.o.o.o.o.o.o.o.o.o.o.o.o.o.o.o.o.o.o...P d y 8 X 8 0 0 0 *.m.m.g.1.",
"  6.g.M.;.@.o.o.o.o.o.o.o.o.o.o.o.o.o.o.o.o.o.o.o.o.o.o.o.o.o.o.o.o.o.o.o.o.o.o.o.o.o.o.o.o.o.] L d y 0 0 8 X 8 0 0 0 *.m.m.g.1.",
"  6.g.b.$.o.o.o.o.o.o.o.o.o.o.o.o.o.o.o.o.o.o.o.o.o.o.o.o.o.o.o.o.o.o.o.o.o.o.o.o.o.o.o.o.` Y d y 0 0 0 0 8 X 8 0 0 0 *.m.m.g.1.",
"  6.g.c.#.o.o.o.o.o.o.o.o.o.o.o.o.o.o.o.o.o.o.o.o.o.o.o.o.o.o.o.o.o.o.o.o.o.o.o.o.@.X.) C p q 0 0 0 0 0 0 8 X 8 0 0 0 *.m.m.g.1.",
"  6.g.f.+.X.o.o.o.o.o.o.o.o.o.o.o.o.o.o.o.o.o.o.o.o.o.o.o.o.o.o.o.o.o.o.o.o.o.@.X.Q n w 0 0 0 0 0 0 0 0 0 8 X 8 0 0 0 *.m.m.g.1.",
"  6.g.a.X.X.o.o.o.o.o.o.o.o.o.o.o.o.o.o.o.o.o.o.o.o.o.o.o.o.o.o.o.o.o.o.o.@.X.^ N w 0 0 0 0 0 0 0 0 0 0 0 8 X 8 0 0 0 *.m.m.g.1.",
"  6.g.t.o.X.o.o.o.o.o.o.o.o.o.o.o.o.o.o.o.o.o.o.o.o.o.o.o.o.o.o.o.o.o.@.X.L d w 0 r r r 0 0 0 0 0 0 0 0 0 8 X 8 0 0 0 *.m.m.g.1.",
"  6.g.q.o.X.o.o.o.o.o.o.o.o.o.o.o.o.o.o.o.o.o.o.o.o.o.o.o.o.o.o.o.o.../ d @ 3 0 0 0 0 0 0 0 0 0 0 0 0 0 0 8 X 8 0 0 0 *.m.m.g.1.",
"  6.g.q.o.o.o.o.o.o.o.o.o.o.o.o.o.o.o.o.o.o.o.o.o.o.o.o.o.o.o.o.o.o.( g 6 o 3 0 0 0 0 0 0 0 0 0 0 0 0 0 0 8 X 8 0 0 0 *.m.m.g.1.",
"  6.g.q.o.o.o.o.o.o.o.o.o.o.o.o.o.o.o.o.o.o.o.o.o.o.o.o.o.o.o.o.o.o.' Z 1 @ 3 0 0 0 0 0 0 0 0 0 0 0 0 0 0 8 X 8 0 0 0 *.m.m.g.1.",
"  6.g.t.o.X.o.o.o.o.o.o.o.o.o.o.o.o.o.o.o.o.o.o.o.o.o.o.o.o.o.o.o.o.@.@.` n 1 q 0 0 0 0 0 0 r r 0 0 0 0 0 8 X 8 0 0 0 *.m.m.g.1.",
"  6.g.y.o.X.o.o.o.o.o.o.o.o.o.o.o.o.o.o.o.o.o.o.o.o.o.o.o.o.o.o.o.o.o.o.@.@.` L d y 0 0 0 0 0 0 0 0 0 0 0 8 X 8 0 0 0 *.m.m.g.1.",
"  6.g.d.+.X.o.o.o.o.o.o.o.o.o.o.o.o.o.o.o.o.o.o.o.o.o.o.o.o.o.o.o.o.o.o.o.o.@.o.] P d w 0 0 0 0 0 0 0 0 0 8 X 8 0 0 0 *.m.m.g.1.",
"  6.g.k.#.o.o.o.o.o.o.o.o.o.o.o.o.o.o.o.o.o.o.o.o.o.o.o.o.o.o.o.o.o.o.o.o.o.o.o.o.o...! M w 0 0 0 0 0 0 0 8 X 8 0 0 0 *.m.m.g.1.",
"  6.g.b.$.o.o.o.o.o.o.o.o.o.o.o.o.o.o.o.o.o.o.o.o.o.o.o.o.o.o.o.o.o.o.o.o.o.o.o.o.o.o.o.X.! u e 0 0 0 0 0 8 X 3 r 0 0 *.m.m.g.1.",
"  6.g.M.-.@.o.o.o.o.o.o.o.o.o.o.o.o.o.o.o.o.o.o.o.o.o.o.o.o.o.o.o.o.o.o.o.o.o.o.o.o.o.o.o.o.] D t e 0 0 0 8 X 3 r 0 0 *.m.m.g.1.",
"  6.g.A.8.o.o.o.o.o.o.o.o.o.o.o.o.o.o.o.o.o.o.o.o.o.o.o.o.o.o.o.o.o.o.o.o.o.o.o.o.o.o.o.o.o.o.o.X.Q B w 0 8 X 3 r 0 0 *.m.m.g.1.",
"  6.g.A.r.` o.o.o.o.o.o.o.o.o.o.o.o.o.o.o.o.o.o.o.o.o.o.o.o.o.o.o.o.o.o.o.o.o.o.o.o.o.o.o.o.o.o.o.o.o.) V 6 X 3 r 0 0 *.m.m.g.1.",
"  6.g.A.l.L @.o.o.o.o.o.o.o.o.o.o.o.o.o.o.o.o.o.o.o.o.o.o.o.o.o.o.o.o.o.o.o.o.o.o.o.o.o.o.o.o.o.o.o.o.@.o.) s < e 0 0 *.m.m.g.1.",
"  6.g.A.x.d X.o.o.o.o.o.o.o.o.o.o.o.o.o.o.o.o.o.o.o.o.o.o.o.o.o.o.o.o.o.o.o.o.o.o.o.o.o.o.o.o.o.o.o.o.o.o.@.@.` C d q *.m.m.g.1.",
"  6.g.A.x.y ! @.o.o.o.o.o.o.o.o.o.o.o.o.o.o.o.o.o.o.o.o.o.o.o.o.o.o.o.o.o.o.o.o.o.o.o.o.o.o.o.o.o.o.o.o.o.o.o.@.@...L S z.m.g.1.",
"  6.g.A.x.0 f X.o.o.o.o.o.o.o.o.o.o.o.o.o.o.o.o.o.o.o.o.o.o.o.o.o.o.o.o.o.o.o.o.o.o.o.o.o.o.o.o.o.o.o.o.o.o.o.o.o.@.@.O.0.m.g.1.",
"  6.g.A.x.0 y ! @.X.o.o.o.o.o.o.o.o.o.o.o.o.o.o.o.o.o.o.o.o.o.o.o.o.o.o.o.o.o.o.o.o.o.o.o.o.o.o.o.o.o.o.o.o.o.o.o.o.o.@.,.v.g.1.",
"  6.g.A.x.0 0 d ] @.o.o.o.o.o.o.o.o.o.o.o.o.o.o.o.o.o.o.o.o.o.o.o.o.o.o.o.o.o.o.o.o.o.o.o.o.o.o.o.o.o.o.o.o.o.o.o.o.o.{ w.m.g.1.",
"  6.g.A.x.0 0 9 m X.o.o.o.o.o.o.o.o.o.o.o.o.o.o.o.o.o.o.o.o.o.o.o.o.o.o.o.o.o.o.o.o.o.o.o.o.o.o.o.o.o.o.o.o.o.o.o.o.X.| z.m.g.1.",
"  6.g.A.x.0 0 0 y P o.o.o.o.o.o.o.o.o.o.o.o.o.o.o.o.o.o.o.o.o.o.o.o.o.o.o.o.o.o.o.o.o.o.o.o.o.o.o.o.o.o.o.o.o.o.o.X.H %.m.m.g.1.",
"  6.g.A.x.0 0 0 0 y W o.o.o.o.o.o.o.o.o.o.o.o.o.o.o.o.o.o.o.o.o.o.o.o.o.o.o.o.o.o.o.o.o.o.o.o.o.o.o.o.o.o.o.o.o.o.I e *.m.m.g.1.",
"  6.g.A.x.0 0 0 0 0 y Q o.o.o.o.o.o.o.o.o.o.o.o.o.o.o.o.o.o.o.o.o.o.o.o.o.o.o.o.o.o.o.o.o.o.o.o.o.o.o.o.o.o.o.o.W e 0 *.m.m.g.1.",
"  6.g.A.x.0 0 0 0 0 0 y I o.o.o.o.o.o.o.o.o.o.o.o.o.o.o.o.o.o.o.o.o.o.o.o.o.o.o.o.o.o.o.o.o.o.o.o.o.o.o.o.o.o.I e 0 0 *.m.m.g.1.",
"  6.g.A.x.0 0 0 0 0 0 r % K o.o.o.o.o.o.o.o.o.o.o.o.o.o.o.o.o.o.o.o.o.o.o.o.o.o.o.o.o.o.o.o.o.o.o.o.o.o.o.o.c 4 0 0 0 *.m.m.g.1.",
"  6.g.A.x.0 0 0 0 0 0 r + % U o.o.o.o.o.o.o.o.o.o.o.o.o.o.o.o.o.o.o.o.o.o.o.o.o.o.o.o.o.o.o.o.o.o.o.o.@.X.H O 8 0 0 0 *.m.m.g.1.",
"  6.g.A.x.0 0 0 0 0 0 r + # y J ..@.o.o.o.o.o.o.o.o.o.o.o.o.o.o.o.o.o.o.o.o.o.o.o.o.o.o.o.o.o.o.o.o.@...m 4 X 8 0 0 0 *.m.m.g.1.",
"  6.g.A.x.0 0 0 0 0 0 r + # j q M ) @.@.o.o.o.o.o.o.o.o.o.o.o.o.o.o.o.o.o.o.o.o.o.o.o.o.o.o.o.o.@.o.^ d 9 8 X 8 0 0 0 *.m.m.g.1.",
"  6.g.A.x.0 0 0 0 0 0 r + # j 0 0 w C ] @.@.o.o.o.o.o.o.o.o.o.o.o.o.o.o.o.o.o.o.o.o.o.o.o.o.@.@._ V w 0 0 8 X 8 0 0 0 *.m.m.g.1.",
"  6.g.A.x.0 0 0 0 0 0 r + # j 0 0 0 9 a C _ o.@.o.o.o.o.o.o.X.o.o.o.o.o.o.X.o.o.o.o.o.o.@.o.) V w 9 0 0 0 8 X 8 0 0 0 *.m.m.g.1.",
"  6.g.A.x.0 0 0 0 0 0 r + # j r r r r r e w N R ] o.@.o.o.X.X.X.X.X.X.X.X.X.X.o.o.@.@.] R N w e r r r r r 8 X 3 r 0 0 *.m.m.g.1.",
"  6.g.A.x.0 0 0 0 0 0 r + # 0 9 9 9 9 9 9 9 9 q w d J ~ ` ..X.o.o.o.o.o.X.X..._ ~ C M w q 9 9 9 9 9 9 9 9 8 X 3 r 0 0 *.m.m.g.1.",
"  6.g.A.x.0 0 0 0 0 0 r * ; 9 9 9 9 9 9 9 9 9 9 9 9 9 q 7 5 , b b F F b u , 7 7 q 9 9 9 9 9 9 9 9 9 9 9 9 8 * 3 r 0 0  .m.m.g.1.",
"  6.g.A.x.0 0 0 0 0 0 0 9 j h h h h h h h h h h h h h h h j 9 0 0 0 0 0 0 0 h h h h h h h h h h h h h h h h 0 9 0 0 0 } m.m.g.1.",
"  7.h.Z.C.z z z z z z z z z z z z z z z z z z z z z z z z z z z z z z z z z z z z z z z z z z z z z z z z z z z z z z =.C.V.h.1.",
"  4.p.N.B.3.3.3.3.3.3.3.3.3.3.3.3.3.3.3.3.3.3.3.3.3.3.3.3.3.3.3.3.3.3.3.3.3.3.3.3.3.3.3.3.3.3.3.3.3.3.3.3.3.3.3.3.3.3.5.N.N.i.<.",
". <.2.j.j.j.j.j.j.j.j.j.j.j.j.j.j.j.j.j.j.j.j.j.j.j.j.j.j.j.j.j.j.j.j.j.j.j.j.j.j.j.j.j.j.j.j.j.j.j.j.j.j.j.j.j.j.j.j.j.j.j.2.x "
};
